#!OML:ASF H:\Dans Jumps\Project 1\Capture day 1\Session 1\subject.ASF
:FULLY-SPECIFIED
:DEGREES
104
root 0.0482081 17.4796 -14.472 8.8821 0.856405 -1.67276
lowerback 2.00498 -0.46531 1.07883
upperback 5.85751 -0.713382 2.07417
thorax 4.93971 -0.360549 1.52566
lowerneck -11.1384 0.301683 -2.49865
upperneck 36.3303 0.628617 1.3168
head 14.2896 0.106742 1.07789
rclavicle -1.19271e-015 1.11319e-014
rhumerus -19.4718 -16.1846 -80.849
rradius 26.0736
rwrist 28.2141
rhand -20.8728 -27.3332
rfingers 7.12502
rthumb 5.49719 -57.2419
lclavicle -1.19271e-015 1.11319e-014
lhumerus -15.3256 1.76649 88.6572
lradius 17.4202
lwrist 4.34501
lhand -26.3926 -4.83354
lfingers 7.12502
lthumb 0.166582 25.1461
rfemur -19.7002 -1.09971 19.3943
rtibia 25.2603
rfoot -13.6259 -2.87748
rtoes 6.51117
lfemur -19.2191 5.65326 -16.7019
ltibia 24.4228
lfoot -11.2615 5.11912
ltoes -7.08291
105
root 0.0509046 17.483 -14.473 8.89637 0.904182 -1.67919
lowerback 1.92853 -0.478928 1.0995
upperback 5.83175 -0.733491 2.08612
thorax 4.95638 -0.36984 1.52542
lowerneck -11.1405 0.294176 -2.50951
upperneck 36.2688 0.62674 1.29969
head 14.2617 0.102934 1.07179
rclavicle 6.95746e-015 -1.74931e-014
rhumerus -19.5209 -16.3223 -80.873
rradius 26.038
rwrist 28.2341
rhand -20.8801 -27.3391
rfingers 7.12502
rthumb 5.4901 -57.248
lclavicle 6.95746e-015 -1.74931e-014
lhumerus -15.4121 1.94932 88.6345
lradius 17.2624
lwrist 4.03845
lhand -26.3498 -4.76046
lfingers 7.12502
lthumb 0.207896 25.2192
rfemur -19.6511 -1.11365 19.3924
rtibia 25.1448
rfoot -13.5874 -2.90688
rtoes 6.5594
lfemur -19.1758 5.63821 -16.7006
ltibia 24.2911
lfoot -11.2448 5.06254
ltoes -7.00968
106
root 0.0534668 17.4867 -14.4738 8.91204 0.950563 -1.68744
lowerback 1.85014 -0.490349 1.1199
upperback 5.8022 -0.750659 2.09807
thorax 4.97013 -0.377676 1.52535
lowerneck -11.141 0.284518 -2.51929
upperneck 36.2028 0.621388 1.2825
head 14.2315 0.09784 1.0649
rclavicle 7.95139e-016 2.66371e-014
rhumerus -19.5815 -16.4518 -80.8936
rradius 26.0012
rwrist 28.2561
rhand -20.8852 -27.3357
rfingers 7.12502
rthumb 5.48522 -57.2447
lclavicle 7.95139e-016 2.66371e-014
lhumerus -15.5087 2.10505 88.6139
lradius 17.1173
lwrist 3.76081
lhand -26.2903 -4.66368
lfingers 7.12502
lthumb 0.265411 25.3159
rfemur -19.5982 -1.133 19.3929
rtibia 25.0196
rfoot -13.5448 -2.92435
rtoes 6.61051
lfemur -19.1308 5.62593 -16.6971
ltibia 24.1551
lfoot -11.2289 5.00592
ltoes -6.92565
107
root 0.0559248 17.4905 -14.4745 8.92859 0.994946 -1.69519
lowerback 1.77203 -0.499472 1.13844
upperback 5.76861 -0.764622 2.10892
thorax 4.9794 -0.383971 1.52523
lowerneck -11.1421 0.272504 -2.53031
upperneck 36.135 0.61223 1.26727
head 14.2007 0.0912417 1.05847
rclavicle 7.35503e-015 9.14409e-015
rhumerus -19.6532 -16.5756 -80.9105
rradius 25.9611
rwrist 28.292
rhand -20.8809 -27.3249
rfingers 7.12502
rthumb 5.48933 -57.2338
lclavicle 7.35503e-015 9.14409e-015
lhumerus -15.6157 2.2202 88.5961
lradius 16.9869
lwrist 3.53052
lhand -26.2291 -4.565
lfingers 7.12502
lthumb 0.324503 25.4145
rfemur -19.5424 -1.15777 19.3929
rtibia 24.8875
rfoot -13.4994 -2.92853
rtoes 6.67962
lfemur -19.083 5.61573 -16.6942
ltibia 24.014
lfoot -11.2126 4.95001
ltoes -6.83926
108
root 0.0582497 17.4944 -14.4749 8.94184 1.03582 -1.70244
lowerback 1.69575 -0.506795 1.15302
upperback 5.734 -0.776078 2.1194
thorax 4.98655 -0.389195 1.52699
lowerneck -11.1431 0.259562 -2.54698
upperneck 36.0576 0.600475 1.25963
head 14.1655 0.083862 1.05564
rclavicle -9.74045e-015 -1.35174e-014
rhumerus -19.7358 -16.6825 -80.925
rradius 25.9233
rwrist 28.3313
rhand -20.8665 -27.3114
rfingers 7.12502
rthumb 5.50329 -57.2199
lclavicle -9.74045e-015 -1.35174e-014
lhumerus -15.7296 2.28972 88.583
lradius 16.8721
lwrist 3.3554
lhand -26.1816 -4.49406
lfingers 7.12502
lthumb 0.370322 25.4854
rfemur -19.4796 -1.18672 19.3929
rtibia 24.7499
rfoot -13.4519 -2.92287
rtoes 6.74961
lfemur -19.0259 5.60736 -16.6911
ltibia 23.8663
lfoot -11.195 4.89635
ltoes -6.74616
109
root 0.0604202 17.4985 -14.475 8.94988 1.06868 -1.70872
lowerback 1.62243 -0.510704 1.16401
upperback 5.69981 -0.782825 2.12816
thorax 4.9924 -0.392201 1.52913
lowerneck -11.1511 0.245729 -2.56293
upperneck 35.9793 0.587412 1.25211
head 14.1316 0.0760465 1.05258
rclavicle -9.14409e-015 -1.19271e-014
rhumerus -19.8253 -16.7843 -80.9364
rradius 25.881
rwrist 28.3879
rhand -20.8419 -27.2888
rfingers 7.12502
rthumb 5.52702 -57.1967
lclavicle -9.14409e-015 -1.19271e-014
lhumerus -15.8473 2.31115 88.5738
lradius 16.7704
lwrist 3.23686
lhand -26.1404 -4.43164
lfingers 7.12502
lthumb 0.410182 25.5477
rfemur -19.4077 -1.21526 19.3919
rtibia 24.6063
rfoot -13.4015 -2.90703
rtoes 6.83122
lfemur -18.956 5.60363 -16.6889
ltibia 23.7096
lfoot -11.1714 4.84708
ltoes -6.67002
110
root 0.0623877 17.5027 -14.4744 8.94996 1.09375 -1.7146
lowerback 1.55146 -0.511452 1.17126
upperback 5.66809 -0.78527 2.13549
thorax 4.99945 -0.393206 1.53201
lowerneck -11.1641 0.233024 -2.57573
upperneck 35.8966 0.574929 1.24573
head 14.0969 0.0690977 1.0495
rclavicle 2.5842e-015 -1.98785e-015
rhumerus -19.919 -16.8874 -80.9442
rradius 25.8312
rwrist 28.4663
rhand -20.8055 -27.2598
rfingers 7.12502
rthumb 5.56212 -57.1669
lclavicle 2.5842e-015 -1.98785e-015
lhumerus -15.9686 2.29475 88.5677
lradius 16.6836
lwrist 3.15987
lhand -26.1111 -4.38922
lfingers 7.12502
lthumb 0.43845 25.5901
rfemur -19.3223 -1.23922 19.3908
rtibia 24.4553
rfoot -13.3479 -2.88805
rtoes 6.91852
lfemur -18.8689 5.60628 -16.6864
ltibia 23.5421
lfoot -11.1408 4.7995
ltoes -6.60984
111
root 0.0642208 17.5071 -14.4733 8.94313 1.10739 -1.71894
lowerback 1.48071 -0.507753 1.17422
upperback 5.6384 -0.78171 2.14093
thorax 5.00844 -0.391377 1.53551
lowerneck -11.1785 0.220273 -2.5891
upperneck 35.8081 0.561563 1.24223
head 14.0599 0.0621335 1.04751
rclavicle -3.57812e-015 2.0276e-014
rhumerus -20.0169 -16.9913 -80.9475
rradius 25.7734
rwrist 28.5636
rhand -20.766 -27.2199
rfingers 7.12502
rthumb 5.60031 -57.1259
lclavicle -3.57812e-015 2.0276e-014
lhumerus -16.0949 2.24994 88.5649
lradius 16.6078
lwrist 3.1098
lhand -26.09 -4.37351
lfingers 7.12502
lthumb 0.458774 25.6057
rfemur -19.2238 -1.25903 19.3881
rtibia 24.2953
rfoot -13.2913 -2.86378
rtoes 7.00439
lfemur -18.7652 5.61756 -16.686
ltibia 23.3626
lfoot -11.101 4.7572
ltoes -6.58179
112
root 0.0658504 17.5117 -14.4715 8.92911 1.11199 -1.72097
lowerback 1.41121 -0.500544 1.17223
upperback 5.6084 -0.773263 2.14398
thorax 5.01631 -0.387284 1.53947
lowerneck -11.192 0.210002 -2.59351
upperneck 35.7177 0.550441 1.23596
head 14.022 0.0569862 1.04312
rclavicle -6.16232e-015 -1.07344e-014
rhumerus -20.1181 -17.106 -80.9457
rradius 25.6996
rwrist 28.6856
rhand -20.7267 -27.1736
rfingers 7.12502
rthumb 5.63822 -57.0786
lclavicle -6.16232e-015 -1.07344e-014
lhumerus -16.2274 2.19604 88.5621
lradius 16.5391
lwrist 3.06212
lhand -26.0601 -4.34507
lfingers 7.12502
lthumb 0.487688 25.6341
rfemur -19.1111 -1.27139 19.3832
rtibia 24.125
rfoot -13.23 -2.84051
rtoes 7.0903
lfemur -18.6442 5.63261 -16.6875
ltibia 23.1698
lfoot -11.0516 4.72309
ltoes -6.59214
113
root 0.0673279 17.5164 -14.469 8.91121 1.10754 -1.72234
lowerback 1.33782 -0.488765 1.16867
upperback 5.57677 -0.758638 2.14407
thorax 5.02455 -0.380111 1.5414
lowerneck -11.2014 0.200409 -2.59495
upperneck 35.6272 0.538613 1.23208
head 13.9831 0.0522531 1.03906
rclavicle 5.96354e-016 -4.37326e-015
rhumerus -20.2221 -17.2396 -80.9379
rradius 25.6079
rwrist 28.8341
rhand -20.6889 -27.1174
rfingers 7.12502
rthumb 5.67475 -57.0214
lclavicle 5.96354e-016 -4.37326e-015
lhumerus -16.3635 2.14003 88.5577
lradius 16.4706
lwrist 2.99866
lhand -26.0273 -4.30854
lfingers 7.12502
lthumb 0.519407 25.6706
rfemur -18.9874 -1.27746 19.3775
rtibia 23.9443
rfoot -13.1651 -2.81553
rtoes 7.18225
lfemur -18.5089 5.64719 -16.6888
ltibia 22.9623
lfoot -10.9933 4.70151
ltoes -6.62757
114
root 0.0685653 17.5213 -14.4657 8.88905 1.09496 -1.72302
lowerback 1.25964 -0.473409 1.16219
upperback 5.54353 -0.739172 2.14163
thorax 5.0337 -0.370596 1.54249
lowerneck -11.2067 0.192983 -2.58959
upperneck 35.5355 0.527463 1.22988
head 13.9429 0.0489409 1.03454
rclavicle 1.33186e-014 -1.11319e-014
rhumerus -20.3267 -17.3892 -80.9248
rradius 25.4984
rwrist 29.0026
rhand -20.6447 -27.0623
rfingers 7.12502
rthumb 5.71743 -56.9651
lclavicle 1.33186e-014 -1.11319e-014
lhumerus -16.4994 2.09241 88.5502
lradius 16.403
lwrist 2.92201
lhand -25.957 -4.20888
lfingers 7.12502
lthumb 0.587273 25.7701
rfemur -18.8512 -1.27743 19.3714
rtibia 23.7522
rfoot -13.0969 -2.78978
rtoes 7.27701
lfemur -18.3577 5.65798 -16.6893
ltibia 22.7389
lfoot -10.9269 4.69667
ltoes -6.69711
